<svg width="32" height="23" viewBox="0 0 32 23" fill="none" xmlns="http://www.w3.org/2000/svg">
<path d="M0 11.6177H5.39077C5.61775 11.6151 5.83996 11.5522 6.03461 11.4355C6.22925 11.3189 6.38934 11.1526 6.49846 10.9537L10.9292 2.10049C11.0384 1.88007 11.2125 1.6983 11.4281 1.57961C11.6437 1.46092 11.8905 1.41098 12.1354 1.4365C12.3793 1.45297 12.612 1.54459 12.8016 1.69874C12.9912 1.8529 13.1282 2.062 13.1938 2.29723L18.6831 20.5447C18.7551 20.7922 18.9032 21.0108 19.1064 21.1697C19.3096 21.3286 19.5576 21.4196 19.8154 21.43C20.057 21.422 20.2908 21.3431 20.4878 21.2031C20.6848 21.0632 20.8362 20.8684 20.9231 20.643L24.2954 12.4046C24.3882 12.1735 24.5479 11.9753 24.7539 11.8351C24.9599 11.695 25.2031 11.6193 25.4523 11.6177H32" stroke="#F8FAFC" stroke-width="2.86" stroke-linejoin="round"/>
</svg>
